<?xml version="1.0" encoding="UTF-8" standalone="no"?>
<!-- Generator: Adobe Illustrator 23.0.1, SVG Export Plug-In . SVG Version: 6.00 Build 0)  -->

<svg
   xmlns:dc="http://purl.org/dc/elements/1.1/"
   xmlns:cc="http://creativecommons.org/ns#"
   xmlns:rdf="http://www.w3.org/1999/02/22-rdf-syntax-ns#"
   xmlns:svg="http://www.w3.org/2000/svg"
   xmlns="http://www.w3.org/2000/svg"
   xmlns:sodipodi="http://sodipodi.sourceforge.net/DTD/sodipodi-0.dtd"
   xmlns:inkscape="http://www.inkscape.org/namespaces/inkscape"
   version="1.1"
   id="Layer_1"
   x="0px"
   y="0px"
   viewBox="0 0 270 270"
   style="enable-background:new 0 0 270 270;"
   xml:space="preserve"
   sodipodi:docname="Slack_Mark.svg"
   inkscape:version="0.92.3 (2405546, 2018-03-11)"><metadata
   id="metadata35"><rdf:RDF><cc:Work
       rdf:about=""><dc:format>image/svg+xml</dc:format><dc:type
         rdf:resource="http://purl.org/dc/dcmitype/StillImage" /><dc:title></dc:title></cc:Work></rdf:RDF></metadata><defs
   id="defs33" /><sodipodi:namedview
   pagecolor="#ffffff"
   bordercolor="#666666"
   borderopacity="1"
   objecttolerance="10"
   gridtolerance="10"
   guidetolerance="10"
   inkscape:pageopacity="0"
   inkscape:pageshadow="2"
   inkscape:window-width="1799"
   inkscape:window-height="980"
   id="namedview31"
   showgrid="false"
   inkscape:zoom="1.7481481"
   inkscape:cx="210.63219"
   inkscape:cy="121.64066"
   inkscape:window-x="0"
   inkscape:window-y="0"
   inkscape:window-maximized="0"
   inkscape:current-layer="Layer_1" />
<style
   type="text/css"
   id="style2">
	.st0{fill:#E01E5A;}
	.st1{fill:#36C5F0;}
	.st2{fill:#2EB67D;}
	.st3{fill:#ECB22E;}
</style>
<g
   id="g28">
	<g
   id="g8">
		<path
   class="st0"
   d="M99.4,151.2c0,7.1-5.8,12.9-12.9,12.9c-7.1,0-12.9-5.8-12.9-12.9c0-7.1,5.8-12.9,12.9-12.9h12.9V151.2z"
   id="path4" />
		<path
   class="st0"
   d="M105.9,151.2c0-7.1,5.8-12.9,12.9-12.9s12.9,5.8,12.9,12.9v32.3c0,7.1-5.8,12.9-12.9,12.9    s-12.9-5.8-12.9-12.9V151.2z"
   id="path6" />
	</g>
	<g
   id="g14">
		<path
   class="st1"
   d="M118.8,99.4c-7.1,0-12.9-5.8-12.9-12.9c0-7.1,5.8-12.9,12.9-12.9s12.9,5.8,12.9,12.9v12.9H118.8z"
   id="path10" />
		<path
   class="st1"
   d="M118.8,105.9c7.1,0,12.9,5.8,12.9,12.9s-5.8,12.9-12.9,12.9H86.5c-7.1,0-12.9-5.8-12.9-12.9    s5.8-12.9,12.9-12.9H118.8z"
   id="path12" />
	</g>
	<g
   id="g20">
		<path
   class="st2"
   d="M170.6,118.8c0-7.1,5.8-12.9,12.9-12.9c7.1,0,12.9,5.8,12.9,12.9s-5.8,12.9-12.9,12.9h-12.9V118.8z"
   id="path16" />
		<path
   class="st2"
   d="M164.1,118.8c0,7.1-5.8,12.9-12.9,12.9c-7.1,0-12.9-5.8-12.9-12.9V86.5c0-7.1,5.8-12.9,12.9-12.9    c7.1,0,12.9,5.8,12.9,12.9V118.8z"
   id="path18" />
	</g>
	<g
   id="g26">
		<path
   class="st3"
   d="M151.2,170.6c7.1,0,12.9,5.8,12.9,12.9c0,7.1-5.8,12.9-12.9,12.9c-7.1,0-12.9-5.8-12.9-12.9v-12.9H151.2z"
   id="path22" />
		<path
   class="st3"
   d="M151.2,164.1c-7.1,0-12.9-5.8-12.9-12.9c0-7.1,5.8-12.9,12.9-12.9h32.3c7.1,0,12.9,5.8,12.9,12.9    c0,7.1-5.8,12.9-12.9,12.9H151.2z"
   id="path24" />
	</g>
</g>
</svg>